<?xml version="1.0" encoding="UTF-8" standalone="no"?>
<!-- Created with Inkscape (http://www.inkscape.org/) -->

<svg
   width="1920"
   height="1080"
   viewBox="0 0 508 285.75"
   version="1.1"
   id="svg5"
   inkscape:version="1.2.2 (732a01da63, 2022-12-09)"
   sodipodi:docname="pink_bg_Plain_SVG.svg"
   xmlns:inkscape="http://www.inkscape.org/namespaces/inkscape"
   xmlns:sodipodi="http://sodipodi.sourceforge.net/DTD/sodipodi-0.dtd"
   xmlns="http://www.w3.org/2000/svg"
   xmlns:svg="http://www.w3.org/2000/svg">
  <sodipodi:namedview
     id="namedview7"
     pagecolor="#ffffff"
     bordercolor="#666666"
     borderopacity="1.0"
     inkscape:showpageshadow="2"
     inkscape:pageopacity="0.0"
     inkscape:pagecheckerboard="0"
     inkscape:deskcolor="#d1d1d1"
     inkscape:document-units="mm"
     showgrid="false"
     inkscape:zoom="0.52221047"
     inkscape:cx="1553.0137"
     inkscape:cy="532.35241"
     inkscape:window-width="1920"
     inkscape:window-height="1009"
     inkscape:window-x="-8"
     inkscape:window-y="-8"
     inkscape:window-maximized="1"
     inkscape:current-layer="layer1" />
  <defs
     id="defs2" />
  <g
     inkscape:label="Layer 1"
     inkscape:groupmode="layer"
     id="layer1"
     transform="translate(-50.998111,-37.796951)">
    <g
       id="g291"
       transform="matrix(8.8127956,0,0,5.0624913,-693.64521,-387.06406)">
      <path
         style="opacity:0.718033;fill:#ff5889;fill-opacity:0.271062"
         d="m 128.05941,107.65158 c -4.76539,0.56372 -9.09345,2.90125 -13.58418,5.21467 -4.49075,2.3134 -9.14541,4.60159 -14.564483,5.04517 -4.36781,0.35752 -9.113644,0.21074 -14.733472,-2.50476 v 24.76386 h 56.247215 c -0.13352,-13.83938 5.38596,-34.50056 -13.36508,-32.51894 z"
         id="path714" />
      <path
         style="opacity:0.718033;fill:#f2f2f2"
         d="m 85.177275,83.923307 c -0.0034,15.886619 -5.489031,35.275083 14.721582,33.843413 5.385123,-0.4408 10.019103,-2.71661 14.508163,-5.02915 4.48905,-2.31255 8.83291,-4.66265 13.63482,-5.23069 1.20049,-0.142 2.42851,-0.17219 3.69487,-0.0625 2.95943,0.25628 6.17816,0.46108 9.68778,2.24328 V 83.923307 Z"
         id="rect344" />
    </g>
  </g>
</svg>
