<?xml version="1.0" encoding="UTF-8" standalone="no"?>
<!-- Created with Inkscape (http://www.inkscape.org/) -->

<svg
   width="1920"
   height="1080"
   viewBox="0 0 508 285.75"
   version="1.1"
   id="svg5"
   inkscape:version="1.2.2 (732a01da63, 2022-12-09)"
   sodipodi:docname="pink_bg_Plain_SVG - 複製.svg"
   xmlns:inkscape="http://www.inkscape.org/namespaces/inkscape"
   xmlns:sodipodi="http://sodipodi.sourceforge.net/DTD/sodipodi-0.dtd"
   xmlns="http://www.w3.org/2000/svg"
   xmlns:svg="http://www.w3.org/2000/svg">
  <sodipodi:namedview
     id="namedview7"
     pagecolor="#ffffff"
     bordercolor="#666666"
     borderopacity="1.0"
     inkscape:showpageshadow="2"
     inkscape:pageopacity="0.0"
     inkscape:pagecheckerboard="0"
     inkscape:deskcolor="#d1d1d1"
     inkscape:document-units="mm"
     showgrid="false"
     inkscape:zoom="0.52221047"
     inkscape:cx="928.7443"
     inkscape:cy="520.86279"
     inkscape:window-width="1920"
     inkscape:window-height="1009"
     inkscape:window-x="-8"
     inkscape:window-y="-8"
     inkscape:window-maximized="1"
     inkscape:current-layer="layer1" />
  <defs
     id="defs2" />
  <g
     inkscape:label="Layer 1"
     inkscape:groupmode="layer"
     id="layer1"
     transform="translate(-50.998111,-37.796951)">
    <g
       id="g848">
      <path
         style="opacity:0.96428571;fill:#000000;fill-opacity:0.271062;stroke-width:6.67942"
         d="m 434.91619,157.92113 c -41.9964,2.85382 -80.13871,14.68755 -119.7146,26.39922 -39.57606,11.71157 -80.59663,23.29551 -128.35381,25.54113 -38.49262,1.80994 -80.31668,1.06687 -129.843076,-12.68033 V 322.54798 H 552.69991 C 551.52323,252.48624 600.16528,147.88919 434.91619,157.92113 Z"
         id="path714" />
      <path
         style="opacity:0.718033;fill:#f2f2f2;stroke-width:6.67942"
         d="M 57.004704,37.796952 C 56.974741,118.22282 8.6309961,216.37675 186.743,209.12894 c 47.45799,-2.23155 88.2963,-13.75282 127.85747,-25.46003 39.56108,-11.70727 77.84263,-23.60463 120.16088,-26.48033 10.57968,-0.71887 21.40197,-0.87171 32.56214,-0.3164 26.08085,1.29741 54.44686,2.33421 85.37642,11.35658 V 37.796952 Z"
         id="rect344" />
    </g>
  </g>
</svg>
